<svg width="16" height="16" viewBox="0 0 16 16" fill="none" xmlns="http://www.w3.org/2000/svg">
<path d="M2 8C2 10.5141 2 13.1046 2.87868 13.8856C3.75736 14.6667 5.17157 14.6667 8 14.6667C10.8284 14.6667 12.2427 14.6667 13.1213 13.8856C14 13.1046 14 10.5141 14 8" stroke="#797979"/>
<path d="M9.77351 9.47054L13.7784 8.26907C14.1754 8.15 14.3739 8.0904 14.4998 7.94767C14.5244 7.91987 14.5466 7.89007 14.5661 7.8586C14.6666 7.69694 14.6666 7.48974 14.6666 7.0752C14.6666 5.44178 14.6666 4.62507 14.218 4.07366C14.1318 3.96769 14.0349 3.87082 13.9289 3.78459C13.3775 3.33594 12.5608 3.33594 10.9274 3.33594H5.0726C3.43916 3.33594 2.62245 3.33594 2.07104 3.78459C1.96507 3.87082 1.8682 3.96769 1.78197 4.07366C1.33331 4.62507 1.33331 5.44178 1.33331 7.0752C1.33331 7.48974 1.33331 7.69694 1.43383 7.8586C1.45341 7.89007 1.47559 7.91987 1.50012 7.94767C1.62608 8.0904 1.82458 8.15 2.22158 8.26907L6.22643 9.47054" stroke="#797979"/>
<path d="M4.33331 3.33594C4.88227 3.32202 5.43948 2.97254 5.62627 2.45615C5.63202 2.44026 5.63791 2.4226 5.64969 2.38725L5.6668 2.33594C5.69492 2.25156 5.70899 2.20936 5.72403 2.17194C5.91616 1.69402 6.36639 1.36952 6.88051 1.33838C6.92078 1.33594 6.96525 1.33594 7.05425 1.33594H8.94605C9.03498 1.33594 9.07945 1.33594 9.11971 1.33838C9.63385 1.36952 10.0841 1.69402 10.2762 2.17194C10.2912 2.20936 10.3053 2.25156 10.3334 2.33594L10.3506 2.38725C10.3623 2.42239 10.3682 2.44031 10.374 2.45615C10.5608 2.97254 11.1177 3.32202 11.6666 3.33594" stroke="#797979"/>
<path d="M9.33331 8.33594H6.66665C6.48255 8.33594 6.33331 8.4852 6.33331 8.66927V10.1103C6.33331 10.2465 6.4163 10.3691 6.54285 10.4197L7.00958 10.6065C7.64538 10.8607 8.35458 10.8607 8.99038 10.6065L9.45711 10.4197C9.58365 10.3691 9.66665 10.2465 9.66665 10.1103V8.66927C9.66665 8.4852 9.51738 8.33594 9.33331 8.33594Z" stroke="#797979" stroke-linecap="round"/>
</svg>
