<svg width="56" height="42" viewBox="0 0 56 42" fill="none" xmlns="http://www.w3.org/2000/svg">
<rect x="0.327468" y="0.327468" width="55.3451" height="41.3451" rx="7.67253" fill="white"/>
<rect x="0.327468" y="0.327468" width="55.3451" height="41.3451" rx="7.67253" stroke="#9E9E9E" stroke-width="0.654936"/>
<path d="M39.0847 15.1172C39.0601 15.1172 39.0231 15.1172 38.9862 15.1172C32.4745 14.5256 25.9751 14.3023 19.5372 14.894L17.0261 15.1172C16.5091 15.1619 16.0536 14.827 16.0044 14.3581C15.9552 13.8893 16.3245 13.4874 16.8291 13.4428L19.3403 13.2195C25.8889 12.6167 32.5237 12.8511 39.1709 13.4428C39.6756 13.4874 40.0448 13.9005 39.9956 14.3581C39.9587 14.7935 39.5525 15.1172 39.0847 15.1172Z" fill="#797979"/>
<path d="M23.6976 13.9899C23.6483 13.9899 23.5991 13.9899 23.5375 13.9787C23.0452 13.9005 22.7005 13.4652 22.7867 13.0187L23.0575 11.5563C23.2544 10.4847 23.5252 9 26.3933 9H29.6184C32.4988 9 32.7696 10.5405 32.9542 11.5675L33.225 13.0187C33.3112 13.4764 32.9665 13.9117 32.4742 13.9787C31.9695 14.0568 31.4894 13.7443 31.4156 13.2977L31.1447 11.8466C30.9724 10.8754 30.9355 10.6856 29.6307 10.6856H26.4056C25.1008 10.6856 25.0762 10.8419 24.8916 11.8354L24.6085 13.2866C24.5346 13.6996 24.1407 13.9899 23.6976 13.9899Z" fill="#797979"/>
<path d="M31.9574 32.9998H24.0547C19.7587 32.9998 19.5864 30.8454 19.451 29.104L18.6508 17.8628C18.6139 17.4051 19.0078 17.0033 19.5125 16.9698C20.0295 16.9474 20.4603 17.2935 20.4973 17.7512L21.2974 28.9923C21.4328 30.6891 21.482 31.3254 24.0547 31.3254H31.9574C34.5424 31.3254 34.5916 30.6891 34.7147 28.9923L35.5148 17.7512C35.5518 17.2935 35.9949 16.9474 36.4996 16.9698C37.0043 17.0033 37.3982 17.394 37.3612 17.8628L36.5611 29.104C36.4257 30.8454 36.2534 32.9998 31.9574 32.9998Z" fill="#797979"/>
<path d="M30.0496 26.86H25.9506C25.4459 26.86 25.0273 26.4805 25.0273 26.0228C25.0273 25.5651 25.4459 25.1855 25.9506 25.1855H30.0496C30.5543 25.1855 30.9728 25.5651 30.9728 26.0228C30.9728 26.4805 30.5543 26.86 30.0496 26.86Z" fill="#797979"/>
<path d="M31.0858 22.3951H24.931C24.4263 22.3951 24.0078 22.0156 24.0078 21.5579C24.0078 21.1002 24.4263 20.7207 24.931 20.7207H31.0858C31.5904 20.7207 32.009 21.1002 32.009 21.5579C32.009 22.0156 31.5904 22.3951 31.0858 22.3951Z" fill="#797979"/>
</svg>
