<svg width="21" height="19" viewBox="0 0 21 19" fill="none" xmlns="http://www.w3.org/2000/svg">
<path d="M16.4278 0.285156H4.14211C1.87949 0.285156 0.046875 2.10754 0.046875 4.34968V14.6492C0.046875 16.8913 1.87949 18.7137 4.14211 18.7137H16.4278C18.6904 18.7137 20.5231 16.8913 20.5231 14.6492V4.34968C20.5231 2.10754 18.6904 0.285156 16.4278 0.285156ZM6.70164 4.55444C8.00188 4.55444 9.06664 5.6192 9.06664 6.91944C9.06664 8.21968 8.00188 9.28444 6.70164 9.28444C5.4014 9.28444 4.33664 8.21968 4.33664 6.91944C4.33664 5.6192 5.4014 4.55444 6.70164 4.55444ZM10.6638 14.2704C10.5716 14.3728 10.4283 14.4342 10.285 14.4342H3.1183C2.97497 14.4342 2.83164 14.3728 2.73949 14.2704C2.69262 14.2176 2.65672 14.156 2.63387 14.0892C2.61102 14.0224 2.60168 13.9518 2.6064 13.8813C2.69197 13.0463 3.06409 12.2667 3.65949 11.6751C4.25489 11.0834 5.03682 10.7162 5.87235 10.6359C6.4206 10.5847 6.97243 10.5847 7.52068 10.6359C9.24068 10.7997 10.6228 12.1613 10.7866 13.8813C10.8071 14.0247 10.7559 14.168 10.6638 14.2704ZM17.4516 14.3625H15.404C14.9843 14.3625 14.6362 14.0144 14.6362 13.5947C14.6362 13.1749 14.9843 12.8268 15.404 12.8268H17.4516C17.8714 12.8268 18.2195 13.1749 18.2195 13.5947C18.2195 14.0144 17.8714 14.3625 17.4516 14.3625ZM17.4516 10.2673H13.3564C12.9366 10.2673 12.5885 9.9192 12.5885 9.49944C12.5885 9.07968 12.9366 8.73159 13.3564 8.73159H17.4516C17.8714 8.73159 18.2195 9.07968 18.2195 9.49944C18.2195 9.9192 17.8714 10.2673 17.4516 10.2673ZM17.4516 6.17206H12.3326C11.9128 6.17206 11.5647 5.82397 11.5647 5.4042C11.5647 4.98444 11.9128 4.63635 12.3326 4.63635H17.4516C17.8714 4.63635 18.2195 4.98444 18.2195 5.4042C18.2195 5.82397 17.8714 6.17206 17.4516 6.17206Z" fill="#2D2D2D"/>
</svg>
