<svg width="16" height="17" viewBox="0 0 16 17" fill="none" xmlns="http://www.w3.org/2000/svg">
<path d="M1.71505 5.76015L7.48771 2.87415C7.5432 2.84645 7.60437 2.83203 7.66638 2.83203C7.7284 2.83203 7.78956 2.84645 7.84505 2.87415L13.6177 5.76082C13.6841 5.79406 13.7399 5.84512 13.7789 5.90829C13.818 5.97146 13.8386 6.04424 13.8386 6.11848C13.8386 6.19273 13.818 6.26551 13.7789 6.32868C13.7399 6.39185 13.6841 6.44291 13.6177 6.47615L7.84505 9.36215C7.78956 9.38985 7.7284 9.40427 7.66638 9.40427C7.60437 9.40427 7.5432 9.38985 7.48771 9.36215L1.71505 6.47548C1.64866 6.44224 1.59283 6.39118 1.55382 6.32801C1.5148 6.26484 1.49414 6.19206 1.49414 6.11782C1.49414 6.04357 1.5148 5.97079 1.55382 5.90762C1.59283 5.84446 1.64866 5.79339 1.71505 5.76015Z" stroke="#797979" stroke-linecap="round" stroke-linejoin="round"/>
<path d="M15 8.78516V6.45182L13.6667 5.78516M3 7.11849V10.7265C2.99995 10.9787 3.07146 11.2258 3.20622 11.4391C3.34099 11.6523 3.53347 11.8229 3.76133 11.9312L7.09467 13.5138C7.2734 13.5987 7.4688 13.6427 7.66667 13.6427C7.86454 13.6427 8.05993 13.5987 8.23867 13.5138L11.572 11.9312C11.7999 11.8229 11.9923 11.6523 12.1271 11.4391C12.2619 11.2258 12.3334 10.9787 12.3333 10.7265V7.11849" stroke="#797979" stroke-linecap="round" stroke-linejoin="round"/>
</svg>
