<svg width="17" height="19" viewBox="0 0 17 19" fill="none" xmlns="http://www.w3.org/2000/svg">
<path d="M14.0319 0.399527C13.6316 0.399527 13.3042 0.727013 13.3042 1.12631V2.67849C13.3042 3.0788 13.6316 3.40527 14.0319 3.40527C14.4322 3.40527 14.7596 3.0788 14.7596 2.67849V1.12631C14.7596 0.727013 14.4322 0.399527 14.0319 0.399527Z" stroke="black" stroke-width="0.8" stroke-miterlimit="10" stroke-linecap="round" stroke-linejoin="round"/>
<path d="M10.2819 0.399527C9.8816 0.399527 9.5542 0.727013 9.5542 1.12631V2.67849C9.5542 3.0788 9.8816 3.40527 10.2819 3.40527C10.6822 3.40527 11.0086 3.0788 11.0086 2.67849V1.12631C11.0086 0.727013 10.6822 0.399527 10.2819 0.399527Z" stroke="black" stroke-width="0.8" stroke-miterlimit="10" stroke-linecap="round" stroke-linejoin="round"/>
<path d="M6.53087 0.399527C6.1316 0.399527 5.8042 0.727013 5.8042 1.12631V2.67849C5.8042 3.0788 6.1316 3.40527 6.53087 3.40527C6.93116 3.40527 7.25856 3.0788 7.25856 2.67849V1.12631C7.25856 0.727013 6.93116 0.399527 6.53087 0.399527Z" stroke="black" stroke-width="0.8" stroke-miterlimit="10" stroke-linecap="round" stroke-linejoin="round"/>
<path d="M2.76626 0.399527C2.36597 0.399527 2.03857 0.727013 2.03857 1.12631V2.67849C2.03857 3.0788 2.36597 3.40527 2.76626 3.40527C3.16655 3.40527 3.49395 3.0788 3.49395 2.67849V1.12631C3.49395 0.727013 3.16655 0.399527 2.76626 0.399527Z" stroke="black" stroke-width="0.8" stroke-miterlimit="10" stroke-linecap="round" stroke-linejoin="round"/>
<path d="M16.3999 4.51074H0.399902" stroke="black" stroke-width="0.8" stroke-miterlimit="10" stroke-linecap="round" stroke-linejoin="round"/>
<path d="M7.7066 5.68262H0.717054C0.542565 5.68262 0.399902 5.53997 0.399902 5.36647V2.32994C0.399902 2.15542 0.542565 2.0127 0.717054 2.0127H2.04414M14.7546 2.0127H16.0827C16.2562 2.0127 16.3989 2.15542 16.3989 2.32994V4.50106V5.36647C16.3989 5.53997 16.2562 5.68262 16.0827 5.68262H8.95978M11.0023 2.0127H13.2992M7.25091 2.0127H9.54792M3.49955 2.0127H5.79655" stroke="black" stroke-width="0.8" stroke-miterlimit="10" stroke-linecap="round" stroke-linejoin="round"/>
<path d="M12.9105 16.3955H15.1921C15.6847 16.3955 16.0881 15.9931 16.0881 15.5003V5.68037M0.727539 5.68037V13.7275V15.5003C0.727539 15.9931 1.13087 16.3955 1.62352 16.3955H3.53769H3.90514" stroke="black" stroke-width="0.8" stroke-miterlimit="10" stroke-linecap="round" stroke-linejoin="round"/>
<path d="M12.8964 15.563V16.6275C12.8964 16.8308 12.7302 16.9971 12.5269 16.9971H4.26062C4.05738 16.9971 3.89111 16.8308 3.89111 16.6275V15.563" stroke="black" stroke-width="0.8" stroke-miterlimit="10" stroke-linecap="round" stroke-linejoin="round"/>
<path d="M9.45805 16.9983V17.3401C9.45805 17.9211 8.98183 18.3975 8.4009 18.3975C7.81997 18.3975 7.34375 17.9211 7.34375 17.3401V16.9983" stroke="black" stroke-width="0.8" stroke-miterlimit="10" stroke-linecap="round" stroke-linejoin="round"/>
<path d="M7.7338 15.5635H3.89111C4.96879 14.5606 5.45938 13.6079 5.45938 12.6173V11.2787C5.45938 9.6649 6.7793 8.34377 8.39377 8.34377C10.0082 8.34377 11.3291 9.6649 11.3291 11.2787V12.6173C11.3291 13.6079 11.8187 14.5606 12.8964 15.5635H8.98702" stroke="black" stroke-width="0.8" stroke-miterlimit="10" stroke-linecap="round" stroke-linejoin="round"/>
<path d="M9.42601 8.53418V8.0568C9.42601 7.4881 8.96105 7.02205 8.39246 7.02205C7.82384 7.02205 7.35787 7.4881 7.35889 8.0568L7.3599 8.53418" stroke="black" stroke-width="0.8" stroke-miterlimit="10" stroke-linecap="round" stroke-linejoin="round"/>
<path d="M12.7538 10.704C13.0997 9.68052 12.5516 8.57287 11.5283 8.22797M11.8927 7.15009C13.5102 7.6962 14.3775 9.44955 13.8315 11.0674" stroke="black" stroke-width="0.8" stroke-miterlimit="10" stroke-linecap="round" stroke-linejoin="round"/>
<path d="M4.04181 10.704C3.69594 9.68052 4.244 8.57287 5.26729 8.22797M4.90397 7.15009C3.28537 7.6962 2.4181 9.44955 2.96413 11.0674" stroke="black" stroke-width="0.8" stroke-miterlimit="10" stroke-linecap="round" stroke-linejoin="round"/>
<path d="M7.69867 5.68177L6.73389 5.68262" stroke="black" stroke-width="0.8" stroke-miterlimit="10" stroke-linecap="round" stroke-linejoin="round"/>
<path d="M9.92425 5.68262H8.95947" stroke="black" stroke-width="0.8" stroke-miterlimit="10" stroke-linecap="round" stroke-linejoin="round"/>
</svg>
