<svg width="78" height="72" viewBox="0 0 78 72" fill="none" xmlns="http://www.w3.org/2000/svg">
<g filter="url(#filter0_d_1023_185129)">
<rect x="23" y="16" width="37.8688" height="32" rx="8" fill="#FFDE59" shape-rendering="crispEdges"/>
<rect x="23.3275" y="16.3275" width="37.2139" height="31.3451" rx="7.67253" stroke="#FFDE59" stroke-width="0.654936" shape-rendering="crispEdges"/>
<path d="M46.4316 39.493C47.6731 39.493 48.6796 38.4866 48.6796 37.245C48.6796 36.0035 47.6731 34.9971 46.4316 34.9971C45.19 34.9971 44.1836 36.0035 44.1836 37.245C44.1836 38.4866 45.19 39.493 46.4316 39.493Z" stroke="#2D2D2D" stroke-width="1.3" stroke-linecap="round" stroke-linejoin="round"/>
<path d="M46.4316 29.0028C47.6731 29.0028 48.6796 27.9963 48.6796 26.7548C48.6796 25.5133 47.6731 24.5068 46.4316 24.5068C45.19 24.5068 44.1836 25.5133 44.1836 26.7548C44.1836 27.9963 45.19 29.0028 46.4316 29.0028Z" stroke="#2D2D2D" stroke-width="1.3" stroke-linecap="round" stroke-linejoin="round"/>
<path d="M37.4394 34.2479C38.6809 34.2479 39.6874 33.2415 39.6874 31.9999C39.6874 30.7584 38.6809 29.752 37.4394 29.752C36.1979 29.752 35.1914 30.7584 35.1914 31.9999C35.1914 33.2415 36.1979 34.2479 37.4394 34.2479Z" stroke="#2D2D2D" stroke-width="1.3" stroke-linecap="round" stroke-linejoin="round"/>
<path d="M44.5578 27.8789L39.3125 30.8762" stroke="#2D2D2D" stroke-width="1.3"/>
<path d="M39.3125 33.124L44.5578 36.1213" stroke="#2D2D2D" stroke-width="1.3"/>
</g>
<defs>
<filter id="filter0_d_1023_185129" x="0" y="0" width="77.8672" height="72" filterUnits="userSpaceOnUse" color-interpolation-filters="sRGB">
<feFlood flood-opacity="0" result="BackgroundImageFix"/>
<feColorMatrix in="SourceAlpha" type="matrix" values="0 0 0 0 0 0 0 0 0 0 0 0 0 0 0 0 0 0 127 0" result="hardAlpha"/>
<feOffset dx="-3" dy="4"/>
<feGaussianBlur stdDeviation="10"/>
<feComposite in2="hardAlpha" operator="out"/>
<feColorMatrix type="matrix" values="0 0 0 0 0 0 0 0 0 0 0 0 0 0 0 0 0 0 0.02 0"/>
<feBlend mode="normal" in2="BackgroundImageFix" result="effect1_dropShadow_1023_185129"/>
<feBlend mode="normal" in="SourceGraphic" in2="effect1_dropShadow_1023_185129" result="shape"/>
</filter>
</defs>
</svg>
